<svg width="35" height="35" viewBox="0 0 35 35" fill="none" xmlns="http://www.w3.org/2000/svg">
<path d="M21.3181 16.1212C20.1515 16.1212 19.303 17.1818 19.303 18.4545C19.303 19.7273 20.2575 20.6818 21.3181 20.6818C22.4848 20.6818 23.3333 19.6212 23.3333 18.3485C23.4393 17.1818 22.4848 16.1212 21.3181 16.1212Z" fill="#1C62CD"/>
<path d="M13.7878 16.1212C12.6211 16.1212 11.7726 17.1818 11.7726 18.4545C11.7726 19.7273 12.7272 20.6818 13.7878 20.6818C14.9545 20.6818 15.8029 19.6212 15.8029 18.3485C15.909 17.1818 14.9545 16.1212 13.7878 16.1212Z" fill="#1C62CD"/>
<path d="M17.5 0C7.84849 0 0 7.84848 0 17.5C0 27.1515 7.84849 35 17.5 35C27.1515 35 35 27.1515 35 17.5C35.1061 7.84848 27.2576 0 17.5 0ZM28.8485 23.3333C27.1515 24.6061 25.1364 25.5606 23.1212 26.197C22.697 25.5606 22.2727 24.9242 21.8485 24.1818C22.4848 23.9697 23.1212 23.6515 23.7576 23.2273C23.5455 23.1212 23.4394 23.0152 23.3333 22.9091C19.7273 24.6061 15.4848 24.6061 11.8788 22.9091C11.7727 23.0152 11.5606 23.1212 11.4545 23.2273C12.0909 23.5455 12.7273 23.8636 13.3636 24.1818C13.0455 24.9242 12.6212 25.5606 12.0909 26.197C10.0758 25.5606 8.06061 24.6061 6.36364 23.3333C5.93939 19.0909 6.78788 14.8485 9.75758 10.3939C11.2424 9.75758 12.8333 9.22727 14.4242 8.90909C14.6364 9.33333 14.8485 9.75758 15.0606 10.1818C16.7576 9.9697 18.5606 9.9697 20.2576 10.1818C20.4697 9.75758 20.6818 9.33333 20.8939 8.90909C22.4849 9.22727 24.0758 9.65151 25.5606 10.3939C28 14.2121 29.2727 18.4545 28.8485 23.3333Z" fill="#1C62CD"/>
</svg>
