<svg width="35" height="35" viewBox="0 0 35 35" fill="none" xmlns="http://www.w3.org/2000/svg">
<path d="M17.5 0C7.80121 0 0 7.80121 0 17.5C0 27.1988 7.80121 35 17.5 35C27.1988 35 35 27.1988 35 17.5C35 7.80121 27.0934 0 17.5 0ZM9.80422 9.59337H25.4066C25.6175 9.59337 25.8283 9.59337 26.0392 9.69879C26.0392 9.69879 25.9337 9.6988 25.9337 9.80422L18.9759 17.7108C18.6596 18.1325 18.1325 18.3434 17.6054 18.3434C17.0783 18.3434 16.5512 18.1325 16.2349 17.7108L9.17169 9.69879C9.38253 9.59337 9.59337 9.59337 9.80422 9.59337ZM27.8313 21.0843C27.8313 23.4036 25.9337 25.3012 23.6145 25.3012H11.5964C9.27711 25.3012 7.37952 23.4036 7.37952 21.0843V12.0181C7.37952 11.7018 7.48494 11.3855 7.59036 11.0693L14.6536 19.0813C15.3916 19.9247 16.4458 20.4518 17.6054 20.4518C18.7651 20.4518 19.8193 19.9247 20.5572 19.0813L27.5151 11.1747L27.6205 11.0693C27.7259 11.3855 27.8313 11.7018 27.8313 12.0181V21.0843V21.0843Z" fill="#1C62CD"/>
</svg>
