<svg width="35" height="35" viewBox="0 0 35 35" fill="none" xmlns="http://www.w3.org/2000/svg">
<path fill-rule="evenodd" clip-rule="evenodd" d="M17.5 35C27.165 35 35 27.165 35 17.5C35 7.83502 27.165 0 17.5 0C7.83502 0 0 7.83502 0 17.5C0 27.165 7.83502 35 17.5 35ZM4 17.834C4 10.1956 10.0275 4 17.4587 4C24.8899 4 30.9174 10.1956 31 17.834C31 23.9447 27.2018 29.1219 21.8348 30.989C21.1743 31.0739 20.9266 30.6495 20.9266 30.3101V26.4909C20.9266 25.2178 20.5137 24.3691 20.0184 23.9447C22.9908 23.6052 26.1284 22.5019 26.1284 17.155C26.1284 15.6273 25.5505 14.3543 24.7248 13.4207C24.7313 13.394 24.7403 13.3606 24.751 13.3206C24.8774 12.852 25.2444 11.4918 24.5596 9.77124C24.5596 9.77124 23.4037 9.43175 20.8441 11.214C19.7706 10.9594 18.6147 10.7897 17.4587 10.7897C16.3027 10.7897 15.1468 10.8746 14.0734 11.214C11.5137 9.43175 10.3578 9.77124 10.3578 9.77124C9.62811 11.6047 10.0926 13.0289 10.1878 13.3209L10.1927 13.3358C9.28442 14.3543 8.789 15.5425 8.789 17.0702C8.789 22.417 11.9266 23.6052 14.8991 23.9447C14.5688 24.2842 14.1559 24.8783 14.0734 25.8119C13.3303 26.1514 11.4312 26.7455 10.1927 24.6237C10.1927 24.6237 9.44952 23.2657 8.12842 23.1809C8.12842 23.1809 6.80731 23.1809 8.0459 24.0296C8.0459 24.0296 8.9541 24.4539 9.5321 26.0665C9.5321 26.0665 10.3578 28.7824 14.0734 27.9337V30.3101C14.0734 30.6495 13.8257 31.0739 13.1652 30.989C7.88074 29.1219 4 23.9447 4 17.834Z" fill="#1C62CD"/>
</svg>
