<svg width="35" height="35" viewBox="0 0 35 35" fill="none" xmlns="http://www.w3.org/2000/svg">
<path d="M17.5 0C7.80121 0 0 7.80121 0 17.5C0 27.1988 7.80121 35 17.5 35C27.1988 35 35 27.1988 35 17.5C35 7.80121 27.0934 0 17.5 0ZM19.0813 26.4608C18.3434 27.3042 17.0783 27.3042 16.3404 26.4608C14.1265 23.8253 10.0151 18.5542 10.0151 15.497C10.0151 11.2801 13.494 7.8012 17.7108 7.8012C21.9277 7.8012 25.4066 11.2801 25.4066 15.497C25.4066 18.6596 21.2952 23.9307 19.0813 26.4608Z" fill="#1C62CD"/>
</svg>
