<svg width="35" height="35" viewBox="0 0 35 35" fill="none" xmlns="http://www.w3.org/2000/svg">
<path fill-rule="evenodd" clip-rule="evenodd" d="M17.5 35C27.165 35 35 27.165 35 17.5C35 7.83502 27.165 0 17.5 0C7.83502 0 0 7.83502 0 17.5C0 27.165 7.83502 35 17.5 35ZM24.9748 24.916C24.1384 25.979 22.7076 26.515 21.2891 26.3188C20.1429 26.1807 19.2582 25.6466 18.2614 25.0448C18.1738 24.9919 18.0854 24.9385 17.9958 24.8848C17.0583 24.2658 16.1669 23.4753 15.447 22.7308C13.8356 21.1957 12.7053 19.2379 11.964 17.2005C11.7588 16.5939 11.5536 15.9873 11.3944 15.2091C11.0636 14.3849 10.9503 13.4352 11.0086 12.5314C11.0545 12.3598 11.0576 12.1768 11.0607 11.9937C11.0638 11.8107 11.0669 11.6276 11.1128 11.456C11.4346 10.2551 12.3171 9.02053 13.5763 8.43853C14.2289 8.06176 15.1327 8.12005 15.727 8.64705C16.2068 9.07256 16.3431 9.88552 16.4616 10.5925C16.4899 10.7611 16.5172 10.9237 16.5478 11.0736C16.753 11.6802 16.7407 12.4124 16.5569 13.0986C16.2014 13.7389 15.7204 14.1617 15.1137 14.3669C14.6787 14.6181 14.6327 14.7896 14.8839 15.2247C15.6588 17.8228 16.9607 19.8265 19.1327 21.3279C19.4299 21.5914 19.6014 21.6374 20.0365 21.3862C20.1391 21.296 20.2557 21.1846 20.3813 21.0646C20.8443 20.6222 21.4276 20.0648 21.8687 20.0383C22.7338 19.9352 23.4082 20.5437 23.9707 21.0513C24.0257 21.101 24.0797 21.1497 24.1326 21.1966C24.7269 21.7236 25.6184 22.5141 25.5601 23.4179C25.5478 24.1501 25.2383 24.6188 24.9748 24.916Z" fill="#1C62CD"/>
</svg>
